<?xml version="1.0" encoding="iso-8859-1"?>
<!-- Generator: Adobe Illustrator 19.0.0, SVG Export Plug-In . SVG Version: 6.00 Build 0)  -->
<svg version="1.1" id="Capa_1" xmlns="http://www.w3.org/2000/svg" xmlns:xlink="http://www.w3.org/1999/xlink" x="0px" y="0px"
	 viewBox="0 0 512 512" style="enable-background:new 0 0 512 512;" xml:space="preserve">
<g>
	<path style="fill:#F9D366;" d="M100.233,107.352c-4.331,0-7.843-3.511-7.843-7.843v-20.39c0-4.331,3.511-7.843,7.843-7.843
		s7.843,3.511,7.843,7.843v20.39C108.075,103.841,104.564,107.352,100.233,107.352z"/>
	<path style="fill:#F9D366;" d="M100.233,162.248c-4.331,0-7.843-3.511-7.843-7.843v-20.39c0-4.331,3.511-7.843,7.843-7.843
		s7.843,3.511,7.843,7.843v20.39C108.075,158.737,104.564,162.248,100.233,162.248z"/>
	<path style="fill:#F9D366;" d="M137.876,124.605h-20.39c-4.331,0-7.843-3.511-7.843-7.843s3.511-7.843,7.843-7.843h20.39
		c4.331,0,7.843,3.511,7.843,7.843S142.207,124.605,137.876,124.605z"/>
	<path style="fill:#F9D366;" d="M82.98,124.605h-20.39c-4.331,0-7.843-3.511-7.843-7.843s3.511-7.843,7.843-7.843h20.39
		c4.331,0,7.843,3.511,7.843,7.843S87.311,124.605,82.98,124.605z"/>
</g>
<path style="fill:#4E4F75;" d="M415.308,254.787v214.565c0,23.558-61.158,42.648-136.6,42.648c-21.666,0-42.16-1.578-60.355-4.383
	c-45.177-6.948-76.245-21.471-76.245-38.265V256.281l76.245,26.513L415.308,254.787z"/>
<g>
	<path style="fill:#32314C;" d="M218.352,282.794v224.822c-45.177-6.948-76.245-21.471-76.245-38.265v-213.07L218.352,282.794z"/>
	<path style="fill:#32314C;" d="M415.308,281.715v28.604c-37.942,8.996-85.269,14.339-136.6,14.339s-98.658-5.343-136.6-14.339
		v-27.11l76.245-0.415L415.308,281.715z"/>
</g>
<ellipse style="fill:#4E4F75;" cx="278.702" cy="225.004" rx="226.071" ry="70.585"/>
<path style="fill:#32314C;" d="M278.705,243.92c-44.946,0-89.031-4.551-124.134-12.815c-0.085-0.02-0.169-0.04-0.254-0.06
	c-6.355-1.501-6.355-10.573,0-12.075c0.085-0.02,0.169-0.04,0.254-0.06c35.103-8.264,79.187-12.815,124.134-12.815
	s89.03,4.551,124.134,12.815c0.085,0.02,0.169,0.04,0.254,0.06c6.355,1.501,6.355,10.573,0,12.075
	c-0.085,0.02-0.169,0.04-0.254,0.06C367.735,239.369,323.651,243.92,278.705,243.92z"/>
<path style="fill:#EDE6F5;" d="M382.973,170.335c0,22.524-1.882,44.547-5.469,65.838c-8.533,1.433-17.411,2.687-26.55,3.733
	c-0.094,0.01-0.199,0.021-0.293,0.031c-5.145,0.596-10.363,1.119-15.654,1.579c-3.66,0.314-7.362,0.607-11.084,0.857
	c-4.172,0.293-8.376,0.544-12.601,0.742c-4.382-23.445-6.693-47.799-6.693-72.781c0-62.083,14.274-120.256,39.172-170.335
	C368.7,50.079,382.973,108.251,382.973,170.335z"/>
<path style="fill:#CEC1E8;" d="M352.596,100.722c-13.197,39.507-6.034,108.816-1.935,139.215
	c-5.145,0.596-10.363,1.119-15.654,1.579c-4.329-31.842-11.565-103.044,2.719-145.771c1.37-4.11,5.814-6.327,9.924-4.957
	C351.759,92.168,353.976,96.613,352.596,100.722z"/>
<path style="fill:#EDE6F5;" d="M253.128,170.335c0,24.982-2.311,49.347-6.703,72.792c-4.35-0.199-8.669-0.46-12.946-0.753
	c-3.608-0.251-7.184-0.523-10.739-0.826c-5.291-0.46-10.509-0.983-15.654-1.569c-0.209-0.021-0.429-0.052-0.638-0.073
	c-9.014-1.046-17.767-2.259-26.184-3.681c-3.597-21.301-5.479-43.344-5.479-65.89c0-62.083,14.263-120.256,39.162-170.335
	C238.844,50.079,253.128,108.251,253.128,170.335z"/>
<path style="fill:#CEC1E8;" d="M222.74,241.547c-5.291-0.46-10.509-0.983-15.654-1.569c4.099-30.378,11.273-99.76-1.935-139.256
	c-1.37-4.11,0.847-8.554,4.957-9.934c4.11-1.37,8.554,0.847,9.924,4.957C234.316,138.493,227.059,209.727,222.74,241.547z"/>
<g>
	<path style="fill:#F9D366;" d="M479.178,85.85l7.665-1.554c10.115-2.051,10.115-16.507,0-18.558l-7.665-1.554
		c-19.309-3.915-34.399-19.006-38.314-38.314l-1.554-7.665c-2.051-10.115-16.508-10.115-18.558,0l-1.554,7.665
		c-3.915,19.309-19.006,34.399-38.314,38.314l-7.665,1.554c-10.115,2.051-10.115,16.507,0,18.558l7.665,1.554
		c19.309,3.915,34.4,19.006,38.314,38.314l1.554,7.665c2.051,10.115,16.508,10.115,18.558,0l1.554-7.665
		C444.78,104.856,459.87,89.765,479.178,85.85z"/>
	<path style="fill:#F9D366;" d="M157.078,421.079l22.925-4.648c10.823-2.194,10.823-17.662,0-19.856l-22.925-4.648
		c-22.591-4.58-40.247-22.237-44.828-44.828l-4.648-22.925c-2.194-10.823-17.662-10.823-19.856,0l-4.648,22.925
		c-4.58,22.591-22.237,40.247-44.828,44.828l-22.925,4.648c-10.823,2.194-10.823,17.662,0,19.856l22.925,4.648
		c22.591,4.58,40.247,22.237,44.828,44.827l4.648,22.925c2.194,10.823,17.662,10.823,19.856,0l4.648-22.925
		C116.831,443.316,134.487,425.659,157.078,421.079z"/>
</g>
<g>
</g>
<g>
</g>
<g>
</g>
<g>
</g>
<g>
</g>
<g>
</g>
<g>
</g>
<g>
</g>
<g>
</g>
<g>
</g>
<g>
</g>
<g>
</g>
<g>
</g>
<g>
</g>
<g>
</g>
</svg>
